<svg version="1.1" id="Layer_1" xmlns="http://www.w3.org/2000/svg" xmlns:xlink="http://www.w3.org/1999/xlink" x="0px" y="0px"
	 width="100%" viewBox="0 0 512 512" enable-background="new 0 0 512 512" xml:space="preserve">
<path fill="#000000" opacity="1.000000" stroke="none" 
	d="
M290.000000,513.000000 
	C193.356796,513.000000 97.213585,513.000000 1.035192,513.000000 
	C1.035192,342.398438 1.035192,171.796860 1.035192,1.097646 
	C171.559891,1.097646 342.119843,1.097646 512.839905,1.097646 
	C512.839905,171.666550 512.839905,342.333252 512.839905,513.000000 
	C438.796844,513.000000 364.648407,513.000000 290.000000,513.000000 
M49.863190,391.629944 
	C48.367027,392.922974 47.836655,393.753326 49.298561,396.005585 
	C61.577148,414.922241 76.528702,431.381622 93.534828,446.135162 
	C107.037231,457.849030 121.702278,467.744354 137.451096,476.117828 
	C155.911407,485.932922 175.392075,493.195129 195.726486,497.729431 
	C208.906311,500.668335 222.398315,503.095917 235.846451,503.736359 
	C256.413910,504.715881 276.982483,504.103546 297.466125,500.231934 
	C318.560974,496.244751 338.797363,490.039429 358.110443,480.904694 
	C386.190155,467.623535 411.331665,450.101929 431.784698,426.536560 
	C440.782623,416.169464 448.723785,404.885162 457.734192,393.661255 
	C458.156403,392.771759 458.490326,391.826294 459.013855,391.001099 
	C469.795929,374.006622 477.632324,355.701691 483.222137,336.413300 
	C485.037018,330.150940 487.782745,323.663849 484.807831,317.280273 
	C482.222290,311.732056 478.801392,306.471436 475.122284,301.553009 
	C462.555359,284.752869 449.795227,268.095093 436.951508,251.504730 
	C422.485840,232.819290 407.767792,214.329163 393.312378,195.635864 
	C380.578674,179.169083 368.100159,162.505188 355.415619,146.000046 
	C350.939758,140.176071 339.594543,140.751221 336.043091,146.961472 
	C324.823608,166.580643 313.682098,186.244537 302.562317,205.920486 
	C292.003723,224.603455 281.531372,243.335190 270.971924,262.017670 
	C268.696014,266.044373 264.795227,266.322693 262.262665,262.598724 
	C241.462006,232.012802 220.743561,201.370880 199.882690,170.826172 
	C198.392700,168.644516 198.349136,167.231613 200.073196,165.401382 
	C203.930725,161.306320 207.575562,157.004700 211.532776,153.010895 
	C224.670975,139.751144 237.942612,126.623589 251.074036,113.357201 
	C253.143539,111.266441 254.752090,108.719429 256.573761,106.383377 
	C257.033630,106.777664 257.493500,107.171951 257.953369,107.566238 
	C257.726807,108.918930 257.500214,110.271622 257.279114,111.591560 
	C270.868896,116.621780 267.200409,116.931389 272.511688,106.265678 
	C276.262238,98.734047 277.587738,89.276794 286.967163,85.499367 
	C289.377563,84.528610 291.561432,82.988884 293.834137,81.683960 
	C301.300476,77.396973 308.759827,73.097778 316.745209,68.502083 
	C317.539520,79.014488 318.080109,88.699081 319.069611,98.337593 
	C319.685272,104.334282 320.736237,110.318611 322.115936,116.185211 
	C322.540833,117.991882 324.695862,119.391655 326.058685,120.977745 
	C327.693909,119.157700 330.405701,117.536636 330.785034,115.484459 
	C332.837402,104.380257 334.713562,93.207184 335.772980,81.975082 
	C336.153046,77.945442 338.393158,76.675858 340.926575,75.050346 
	C344.320190,72.872925 347.824036,70.867287 351.524292,68.641266 
	C349.188904,64.632637 347.241028,61.289169 345.190063,57.768707 
	C343.146759,58.556442 341.361633,59.244637 339.576538,59.932831 
	C339.186371,59.655479 338.796204,59.378128 338.406036,59.100777 
	C339.537323,57.275723 340.331329,55.082951 341.854828,53.685497 
	C351.470734,44.865307 361.413818,36.395596 370.868713,27.410105 
	C373.593781,24.820326 375.489929,21.095579 377.011200,17.565832 
	C379.093384,12.734589 377.064728,9.751804 371.785919,10.132335 
	C366.966034,10.479781 361.811584,11.051336 357.531586,13.067507 
	C346.744354,18.149069 336.406616,24.177929 325.786743,29.628424 
	C324.004883,30.542953 321.712799,30.463388 319.656494,30.843149 
	C319.531860,30.352983 319.407196,29.862816 319.282562,29.372650 
	C320.395111,28.170261 321.507629,26.967875 322.592285,25.795614 
	C317.954987,15.312347 315.816956,14.700164 307.187073,21.280281 
	C306.015625,22.173487 304.916718,23.312332 303.586792,23.812643 
	C301.478149,24.605919 299.037598,25.768055 297.025726,25.358429 
	C286.308472,23.176380 275.718994,20.362621 264.993286,18.230112 
	C262.573914,17.749090 258.356018,18.276411 257.469666,19.797993 
	C255.631241,22.953878 258.245209,25.443796 261.311066,27.113756 
	C265.914520,29.621239 270.276489,32.591938 274.957947,34.931953 
	C283.875549,39.389408 292.946350,43.540363 302.324585,47.994804 
	C293.319885,55.254814 284.964355,62.103333 276.471558,68.777206 
	C273.554474,71.069565 270.523651,74.037445 267.140320,74.735008 
	C261.218964,75.955872 254.980133,75.593597 248.884186,76.031776 
	C246.329636,76.215408 243.800262,76.749001 241.335709,77.112236 
	C240.859238,81.295570 240.443939,84.941803 239.960403,89.187233 
	C244.007767,89.187233 247.387024,89.187233 251.577484,89.187233 
	C250.325806,90.795876 249.467667,91.574280 249.014313,92.542259 
	C247.650299,95.454536 246.435654,98.437134 245.180573,101.399864 
	C244.730469,102.462364 244.640518,103.930237 243.859558,104.559479 
	C237.984283,109.293312 231.830170,113.687485 226.041840,118.521484 
	C213.015808,129.399918 200.150665,140.471024 187.067642,151.593277 
	C176.869965,136.708649 166.467102,121.621468 156.170609,106.462029 
	C149.163452,96.145462 138.375671,96.441734 133.271332,107.503448 
	C127.652496,119.680130 122.511917,132.079803 117.271782,144.428497 
	C104.496925,174.533249 91.824547,204.681534 79.037178,234.780945 
	C64.519531,268.953156 49.907997,303.085419 35.371941,337.249817 
	C32.938950,342.968109 30.682001,348.761322 28.343702,354.519897 
	C70.771858,279.555573 123.329170,212.814117 186.980423,154.111343 
	C190.044388,158.696671 193.169357,163.373291 196.012985,167.628860 
	C186.354797,179.294327 176.792603,190.201874 167.951843,201.665787 
	C153.043045,220.998215 138.058182,240.309875 124.061852,260.299988 
	C97.116402,298.784576 74.285423,339.716553 54.001179,382.072937 
	C52.603649,384.991150 51.439404,388.021088 49.863190,391.629944 
z"/>
<path fill="#1585B4" opacity="1.000000" stroke="none" 
	d="
M50.166668,390.999054 
	C51.439404,388.021088 52.603649,384.991150 54.001179,382.072937 
	C74.285423,339.716553 97.116402,298.784576 124.061852,260.299988 
	C138.058182,240.309875 153.043045,220.998215 167.951843,201.665787 
	C176.792603,190.201874 186.354797,179.294327 196.012985,167.628860 
	C193.169357,163.373291 190.044388,158.696671 186.980423,154.111343 
	C123.329170,212.814117 70.771858,279.555573 28.343702,354.519897 
	C30.682001,348.761322 32.938950,342.968109 35.371941,337.249817 
	C49.907997,303.085419 64.519531,268.953156 79.037178,234.780945 
	C91.824547,204.681534 104.496925,174.533249 117.271782,144.428497 
	C122.511917,132.079803 127.652496,119.680130 133.271332,107.503448 
	C138.375671,96.441734 149.163452,96.145462 156.170609,106.462029 
	C166.467102,121.621468 176.869965,136.708649 187.067642,151.593277 
	C200.150665,140.471024 213.015808,129.399918 226.041840,118.521484 
	C231.830170,113.687485 237.984283,109.293312 243.859558,104.559479 
	C244.640518,103.930237 244.730469,102.462364 245.180573,101.399864 
	C246.435654,98.437134 247.650299,95.454536 249.014313,92.542259 
	C249.467667,91.574280 250.325806,90.795876 251.577484,89.187233 
	C247.387024,89.187233 244.007767,89.187233 239.960403,89.187233 
	C240.443939,84.941803 240.859238,81.295570 241.335709,77.112236 
	C243.800262,76.749001 246.329636,76.215408 248.884186,76.031776 
	C254.980133,75.593597 261.218964,75.955872 267.140320,74.735008 
	C270.523651,74.037445 273.554474,71.069565 276.471558,68.777206 
	C284.964355,62.103333 293.319885,55.254814 302.324585,47.994804 
	C292.946350,43.540363 283.875549,39.389408 274.957947,34.931953 
	C270.276489,32.591938 265.914520,29.621239 261.311066,27.113756 
	C258.245209,25.443796 255.631241,22.953878 257.469666,19.797993 
	C258.356018,18.276411 262.573914,17.749090 264.993286,18.230112 
	C275.718994,20.362621 286.308472,23.176380 297.025726,25.358429 
	C299.037598,25.768055 301.478149,24.605919 303.586792,23.812643 
	C304.916718,23.312332 306.015625,22.173487 307.187073,21.280281 
	C315.816956,14.700164 317.954987,15.312347 322.592285,25.795614 
	C321.507629,26.967875 320.395111,28.170261 319.282562,29.372650 
	C319.407196,29.862816 319.531860,30.352983 319.656494,30.843149 
	C321.712799,30.463388 324.004883,30.542953 325.786743,29.628424 
	C336.406616,24.177929 346.744354,18.149069 357.531586,13.067507 
	C361.811584,11.051336 366.966034,10.479781 371.785919,10.132335 
	C377.064728,9.751804 379.093384,12.734589 377.011200,17.565832 
	C375.489929,21.095579 373.593781,24.820326 370.868713,27.410105 
	C361.413818,36.395596 351.470734,44.865307 341.854828,53.685497 
	C340.331329,55.082951 339.537323,57.275723 338.406036,59.100777 
	C338.796204,59.378128 339.186371,59.655479 339.576538,59.932831 
	C341.361633,59.244637 343.146759,58.556442 345.190063,57.768707 
	C347.241028,61.289169 349.188904,64.632637 351.524292,68.641266 
	C347.824036,70.867287 344.320190,72.872925 340.926575,75.050346 
	C338.393158,76.675858 336.153046,77.945442 335.772980,81.975082 
	C334.713562,93.207184 332.837402,104.380257 330.785034,115.484459 
	C330.405701,117.536636 327.693909,119.157700 326.058685,120.977737 
	C324.695862,119.391655 322.540833,117.991882 322.115936,116.185211 
	C320.736237,110.318611 319.685272,104.334282 319.069611,98.337593 
	C318.080109,88.699081 317.539520,79.014488 316.745209,68.502083 
	C308.759827,73.097778 301.300476,77.396973 293.834137,81.683960 
	C291.561432,82.988884 289.377563,84.528610 286.967163,85.499367 
	C277.587738,89.276794 276.262238,98.734047 272.511688,106.265678 
	C267.200409,116.931389 270.868896,116.621780 257.279114,111.591560 
	C257.500214,110.271622 257.726807,108.918930 257.953369,107.566238 
	C257.493500,107.171951 257.033630,106.777664 256.573761,106.383377 
	C254.752090,108.719429 253.143539,111.266441 251.074036,113.357201 
	C237.942612,126.623589 224.670975,139.751144 211.532776,153.010895 
	C207.575562,157.004700 203.930725,161.306320 200.073196,165.401382 
	C198.349136,167.231613 198.392700,168.644516 199.882690,170.826172 
	C220.743561,201.370880 241.462006,232.012802 262.262665,262.598724 
	C264.795227,266.322693 268.696014,266.044373 270.971924,262.017670 
	C281.531372,243.335190 292.003723,224.603455 302.562317,205.920486 
	C313.682098,186.244537 324.823608,166.580643 336.043091,146.961472 
	C339.594543,140.751221 350.939758,140.176071 355.415619,146.000046 
	C368.100159,162.505188 380.578674,179.169083 393.312378,195.635864 
	C407.767792,214.329163 422.485840,232.819290 436.951508,251.504730 
	C449.795227,268.095093 462.555359,284.752869 475.122284,301.553009 
	C478.801392,306.471436 482.222290,311.732056 484.807831,317.280273 
	C487.782745,323.663849 485.037018,330.150940 483.222137,336.413300 
	C477.632324,355.701691 469.795929,374.006622 459.013855,391.001099 
	C458.490326,391.826294 458.156403,392.771759 457.217804,393.525208 
	C444.247162,390.659973 432.616333,385.881561 421.540222,379.593079 
	C417.065643,377.052551 412.394928,374.803925 407.657745,372.788544 
	C385.956940,363.556091 370.244629,366.573486 353.531250,383.093842 
	C348.201233,388.362396 342.986359,393.747955 337.744934,399.105499 
	C327.074738,410.012177 314.031494,414.866272 298.916931,413.935547 
	C287.640411,413.241150 277.784515,408.321381 268.313751,402.604645 
	C258.626648,396.757385 249.348267,390.114655 239.256958,385.094635 
	C231.811813,381.390930 223.503220,378.460815 215.302139,377.461975 
	C202.692261,375.926178 192.200089,382.446106 182.574615,389.962677 
	C174.963364,395.906281 167.446960,401.973389 159.956757,408.069580 
	C147.589828,418.134857 133.979965,419.519073 119.673203,413.310913 
	C109.156487,408.747406 98.953613,403.457092 88.637001,398.436981 
	C76.470718,392.516785 63.993706,388.289581 50.166668,390.999054 
z"/>
<path fill="#F16961" opacity="1.000000" stroke="none" 
	d="
M50.014927,391.314514 
	C63.993706,388.289581 76.470718,392.516785 88.637001,398.436981 
	C98.953613,403.457092 109.156487,408.747406 119.673203,413.310913 
	C133.979965,419.519073 147.589828,418.134857 159.956757,408.069580 
	C167.446960,401.973389 174.963364,395.906281 182.574615,389.962677 
	C192.200089,382.446106 202.692261,375.926178 215.302139,377.461975 
	C223.503220,378.460815 231.811813,381.390930 239.256958,385.094635 
	C249.348267,390.114655 258.626648,396.757385 268.313751,402.604645 
	C277.784515,408.321381 287.640411,413.241150 298.916931,413.935547 
	C314.031494,414.866272 327.074738,410.012177 337.744934,399.105499 
	C342.986359,393.747955 348.201233,388.362396 353.531250,383.093842 
	C370.244629,366.573486 385.956940,363.556091 407.657745,372.788544 
	C412.394928,374.803925 417.065643,377.052551 421.540222,379.593079 
	C432.616333,385.881561 444.247162,390.659973 456.923096,393.703217 
	C448.723785,404.885162 440.782623,416.169464 431.784698,426.536560 
	C411.331665,450.101929 386.190155,467.623535 358.110443,480.904694 
	C338.797363,490.039429 318.560974,496.244751 297.466125,500.231934 
	C276.982483,504.103546 256.413910,504.715881 235.846451,503.736359 
	C222.398315,503.095917 208.906311,500.668335 195.726486,497.729431 
	C175.392075,493.195129 155.911407,485.932922 137.451096,476.117828 
	C121.702278,467.744354 107.037231,457.849030 93.534828,446.135162 
	C76.528702,431.381622 61.577148,414.922241 49.298561,396.005585 
	C47.836655,393.753326 48.367027,392.922974 50.014927,391.314514 
z"/>
</svg>